<?xml version="1.0" encoding="utf-8"?>
<svg xmlns="http://www.w3.org/2000/svg" xmlns:svg="http://www.w3.org/2000/svg"
     version="1.0"
     viewBox="0 0 9.2 8">
   <path d="M 8 8 C 8.6333 7 9 6.2 9.1 5.6 C 9.2 5 8.95 4.6667 8.6 4.4 C 8.25 4.1333 7.7167 4 7 4 L 7 2 C 7 1.8333 7.1667 1.6667 7.5 1.5 C 7.8333 1.3333 8.3333 1.1667 9 1 L 3 1 C 3.6667 1.1667 4.1667 1.3333 4.5 1.5 C 4.8333 1.6667 5 1.8333 5 2 L 5 4 C 4.2833 4 3.75 4.1333 3.4 4.4 C 3.05 4.6667 2.8 5 2.9 5.6 C 3 6.2 3.3667 7 4 8 L 8 8 z"
         fill="#FF0000"
         stroke="#0000FF"
         stroke-width="0.025"
         transform="rotate(180, 5.5, 4.5)"/>
</svg>